<?xml version="1.0" encoding="UTF-8" standalone="no"?>
<!-- Created with Inkscape (http://www.inkscape.org/) -->

<svg
   width="33.322716mm"
   height="39.788025mm"
   viewBox="0 0 33.322716 39.788025"
   version="1.1"
   id="svg1"
   xml:space="preserve"
   xmlns="http://www.w3.org/2000/svg"
   xmlns:svg="http://www.w3.org/2000/svg"><defs
     id="defs1" /><g
     id="layer1"
     transform="translate(-93.816619,-137.76121)"><path
       style="fill:none;stroke:#ffffff;stroke-width:1.264;stroke-linecap:round;stroke-linejoin:round;stroke-dasharray:none;stroke-opacity:1"
       d="m 105.90198,141.00585 0.0662,8.46667 c -1.7949,3.92058 -5.76893,10.13021 -8.898974,15.2272 -3.02827,4.93125 -4.24607,8.91698 0.86873,12.08851 0.72571,0.16671 23.985254,0.1704 24.770974,0.0195 6.07263,-3.98849 3.68238,-7.47726 0.95889,-12.26388 -2.78498,-4.89469 -6.67164,-11.32869 -8.60888,-14.92361 l 0.004,-8.61426 c 1.13746,-0.68513 1.66422,-1.55345 1.55443,-2.61276 H 104.3473 c -0.0813,0.93948 0.37354,2.03771 1.55443,2.57964 z"
       id="path64-1" /><ellipse
       style="fill:#ffffff;fill-opacity:1;stroke:#fefeff;stroke-width:0.17433;stroke-linecap:butt;stroke-linejoin:round;stroke-dasharray:none;stroke-opacity:1"
       id="ellipse64-8"
       cx="112.13251"
       cy="157.5614"
       rx="1.4915445"
       ry="1.4045378" /><ellipse
       style="fill:#ffffff;fill-opacity:1;stroke:#fefeff;stroke-width:0.174665;stroke-linecap:butt;stroke-linejoin:round;stroke-dasharray:none;stroke-opacity:1"
       id="ellipse65-9"
       cx="110.45413"
       cy="151.53587"
       rx="1.1986455"
       ry="1.0616574" /><path
       id="path65-2"
       style="fill:#ffffff;fill-opacity:1;stroke:none;stroke-width:1.264;stroke-linecap:butt;stroke-linejoin:round;stroke-dasharray:none;stroke-opacity:1"
       d="m 104.78534,160.38453 c -1.15513,0.0236 -2.10607,0.24852 -2.78226,0.84129 l -4.254008,7.08174 c -1.88571,3.05497 -0.53747,5.72134 2.910938,6.37377 l 19.34765,0.0589 c 2.861,-0.379 4.67396,-3.05494 3.29903,-5.84771 l -4.53203,-7.76076 c -5.22219,0.92516 -10.52396,-0.81798 -13.98932,-0.74724 z m 10.81484,2.43964 c 0.27678,-1.9e-4 0.54786,0.0718 0.79582,0.23409 l -2.48357,3.84421 c -1.38651,-0.99838 -0.75844,-2.70093 0.33796,-3.55585 0.41115,-0.32059 0.88849,-0.52214 1.34979,-0.52245 z m 1.13223,0.43305 c 2.18259,1.30871 -0.61351,5.13306 -2.45153,3.87676 z m -10.35906,1.04231 c 1.07691,-0.0129 2.08868,0.41979 2.42983,1.38131 l -5.55625,2.00867 c -0.64425,-2.10968 1.33158,-3.36858 3.12642,-3.38998 z m 2.62051,1.84898 c 1.21969,3.05081 -4.64294,4.79469 -5.54953,2.06706 z m 3.02566,2.03709 c 0.0599,-0.001 0.12005,0.001 0.18035,0.004 0.75078,0.0393 1.52797,0.35753 2.13217,0.8351 0.82859,0.65497 1.33248,1.60896 0.9989,2.55229 l -5.4746,-1.8991 c 0.42784,-1.05754 1.26485,-1.48442 2.16318,-1.49242 z m -2.33733,2.01486 5.50561,1.85054 c -0.95374,3.07783 -6.49844,0.78773 -5.50561,-1.85054 z" /></g></svg>
